IKResults
version=1
nRows=11
nColumns=40
inDegrees=yes

Units are S.I. units (second, meters, Newtons, ...)
Angles are in degrees.

endheader
time	pelvis_tilt	pelvis_list	pelvis_rotation	pelvis_tx	pelvis_ty	pelvis_tz	hip_flexion_r	hip_adduction_r	hip_rotation_r	knee_angle_r	knee_angle_r_beta	ankle_angle_r	subtalar_angle_r	mtp_angle_r	hip_flexion_l	hip_adduction_l	hip_rotation_l	knee_angle_l	knee_angle_l_beta	ankle_angle_l	subtalar_angle_l	mtp_angle_l	lumbar_extension	lumbar_bending	lumbar_rotation	arm_flex_r	arm_add_r	arm_rot_r	elbow_flex_r	pro_sup_r	wrist_flex_r	wrist_dev_r	arm_flex_l	arm_add_l	arm_rot_l	elbow_flex_l	pro_sup_l	wrist_flex_l	wrist_dev_l
      0.00000000	     14.44547496	     -2.01050429	      2.14996696	     -0.72405370	      0.93516559	     -1.03514843	      9.15802258	     -1.10489587	    -19.93162842	    -25.44310101	     -0.44406588	      0.15250446	     -8.36667187	      1.28461196	    -22.72424051	      1.88190453	      9.59170154	    -14.29134937	     -0.24943110	     15.60335438	      5.19669670	     -2.51310559	    -24.34720039	      3.46735151	     -7.75526678	    -11.32186037	    -12.01495190	     -1.25705728	     18.58226968	     89.95437384	      0.00000000	      0.00000000	     12.11738950	     11.29596120	     17.76048346	     44.21104461	     89.95437384	      0.00000000	      0.00000000
      0.01000000	     14.34807559	     -2.19689159	      2.26835552	     -0.71470354	      0.93364372	     -1.03553234	      9.37615661	     -0.83604391	    -20.97957021	    -23.03733987	     -0.40207743	     -0.37568652	     -6.53647823	      1.24876802	    -23.19351721	      2.13150178	      9.32413966	    -14.42474307	     -0.25175926	     16.14159670	      5.42693166	     -2.85293110	    -24.18919687	      3.71021342	     -7.99287480	    -11.44761855	    -11.99773649	     -1.55540660	     18.14564272	     89.95437384	      0.00000000	      0.00000000	     12.36934569	     11.24876168	     18.05247383	     45.99969810	     89.95437384	      0.00000000	      0.00000000
      0.02000000	     14.34368682	     -2.14824737	      2.58708652	     -0.70517845	      0.93211620	     -1.03610449	      9.57158752	     -1.09842941	    -23.06957184	    -21.20662880	     -0.37012550	     -0.19413562	     -2.58451592	     -0.00393610	    -23.68537682	      2.24913449	      8.92455579	    -14.68456891	     -0.25629408	     16.18748930	      5.39284300	     -4.06673360	    -24.12275932	      3.76744124	     -8.37887558	    -11.83146912	    -11.93474588	     -1.97527181	     18.13315235	     89.95437384	      0.00000000	      0.00000000	     12.65750660	     11.30436370	     18.02599729	     47.76067909	     89.95437384	      0.00000000	      0.00000000
      0.03000000	     14.24138546	     -2.33675615	      2.91893302	     -0.69580861	      0.93046235	     -1.03622125	      9.80255622	     -0.77988101	    -24.15288969	    -19.26689146	     -0.33627069	     -0.08770200	     -0.32195892	     -0.76358771	    -23.92757296	      2.66068588	      8.59208111	    -15.23422589	     -0.26588740	     16.45090533	      5.55511929	     -4.44064650	    -23.97982293	      4.03818197	     -8.73155456	    -12.07525834	    -11.84845472	     -2.29109551	     18.07493419	     89.95437384	      0.00000000	      0.00000000	     12.91638297	     11.35025356	     18.14832074	     49.48507475	     89.95437384	      0.00000000	      0.00000000
      0.04000000	     14.30665411	     -2.53560850	      3.29788278	     -0.68613423	      0.92897400	     -1.03631120	      9.81141944	     -0.48391728	    -25.38347873	    -17.59505033	     -0.30709156	      0.39549601	      2.64015295	     -1.79186997	    -24.41373534	      3.11888591	      8.30639538	    -15.66707905	     -0.27344211	     16.63982793	      5.52940842	     -4.84318748	    -23.97960255	      4.33781010	     -9.08005506	    -12.33687062	    -11.76153188	     -2.62615343	     18.06862000	     89.95437384	      0.00000000	      0.00000000	     13.21530769	     11.40477968	     18.21606671	     51.04634097	     89.95437384	      0.00000000	      0.00000000
      0.05000000	     14.28899931	     -2.44991127	      3.67188419	     -0.67614057	      0.92727543	     -1.03675226	     10.08017437	     -0.84866563	    -27.50873554	    -16.68209327	     -0.29115745	      0.47919328	      6.67981280	     -9.77276984	    -24.85616352	      3.27005344	      7.95020265	    -16.00853315	     -0.27940161	     16.60864167	      5.70379025	     -7.80265353	    -23.85049374	      4.38029343	     -9.51012886	    -12.66162698	    -11.72641712	     -2.78792122	     18.15835373	     89.95437384	      0.00000000	      0.00000000	     13.44077038	     11.42627734	     18.24074351	     52.54653829	     89.95437384	      0.00000000	      0.00000000
      0.06000000	     14.01590370	     -2.37894054	      3.60406964	     -0.66659650	      0.92533993	     -1.03652703	     10.69380763	     -0.77519017	    -27.43168430	    -15.91061836	     -0.27769268	      0.86207461	      7.12623218	     -9.77448113	    -25.02728632	      3.23278841	      7.80716295	    -16.41383761	     -0.28647551	     16.64736462	      5.63302411	     -7.74849226	    -23.53964624	      4.27358129	     -9.42799766	    -12.91019557	    -11.70810100	     -2.85248272	     18.18188490	     89.95437384	      0.00000000	      0.00000000	     13.86002279	     11.32678116	     18.25889324	     53.67149321	     89.95437384	      0.00000000	      0.00000000
      0.07000000	     13.96056482	     -2.58716331	      3.91513985	     -0.65655445	      0.92381526	     -1.03612526	     10.59832558	     -0.19191173	    -26.85736907	    -14.59314774	     -0.25469848	      1.57896992	      8.67055967	    -10.01884360	    -25.33049133	      3.70514796	      7.38691331	    -17.03452493	     -0.29730855	     16.92102431	      5.69653055	     -7.75356237	    -23.41268064	      4.53426312	     -9.80195245	    -13.01910788	    -11.60926766	     -3.10919289	     18.27387434	     89.95437384	      0.00000000	      0.00000000	     13.87876226	     11.38969068	     18.52451858	     55.26097565	     89.95437384	      0.00000000	      0.00000000
      0.08000000	     14.42160273	     -2.99412074	      4.63404412	     -0.64602782	      0.92320193	     -1.03628356	      9.90479936	      0.38874033	    -27.24345838	    -13.84108045	     -0.24157243	      1.62848611	      9.90360895	    -10.39766250	    -26.13695297	      4.64038057	      7.12234671	    -17.67047194	     -0.30840792	     16.63709688	      5.57734141	     -7.80051054	    -23.74008720	      5.21618161	    -10.29077246	    -13.16897002	    -11.54787248	     -3.29673503	     18.36926684	     89.95437384	      0.00000000	      0.00000000	     14.12424492	     11.24945582	     18.83108827	     56.35248961	     89.95437384	      0.00000000	      0.00000000
      0.09000000	     14.36709209	     -2.94785326	      4.74175156	     -0.63558859	      0.92176467	     -1.03580849	     10.10515726	      0.46295780	    -26.91735710	    -14.06564065	     -0.24549174	      2.33235931	      9.64408238	    -10.37865332	    -26.46779350	      4.78072879	      6.83143191	    -18.28140900	     -0.31907078	     16.48971233	      5.44188954	     -7.71120571	    -23.57884965	      5.18023952	    -10.38350133	    -13.35302774	    -11.48685578	     -3.33249739	     18.50428152	     89.95437384	      0.00000000	      0.00000000	     14.28899653	     11.15089070	     19.02407983	     57.37451377	     89.95437384	      0.00000000	      0.00000000
      0.10000000	     14.11120372	     -2.81250946	      4.84961536	     -0.62467176	      0.92028760	     -1.03540882	     10.40254452	      0.36681965	    -26.36588636	    -14.56337704	     -0.25417888	      2.24911342	      9.30329345	    -10.17993394	    -26.58374087	      4.83203399	      6.63796271	    -18.87149894	     -0.32936979	     16.09973211	      5.29105415	     -7.56221508	    -23.09551183	      5.06659624	    -10.41931903	    -13.68850492	    -11.45538089	     -3.31028597	     18.69352444	     89.95437384	      0.00000000	      0.00000000	     14.49410523	     11.02557124	     19.00651058	     57.85216192	     89.95437384	      0.00000000	      0.00000000
